<svg width="122" height="74" viewBox="0 0 122 74" fill="none" xmlns="http://www.w3.org/2000/svg">
<path d="M0 0H122V41.3681C122 45.1399 119.366 48.3993 115.678 49.1902L9.67763 71.9244C4.69715 72.9926 0 69.196 0 64.1023V0Z" fill="#FF385C"/>
<path d="M111.985 26.5575L106.648 27.7008C106.389 27.7656 106.125 27.8047 105.858 27.8173C105.229 27.8173 104.878 27.4501 104.808 26.718L104.808 16L104.79 16L101.142 16.7871L101.142 18.7658L100.986 18.7988C100.644 18.2775 100.172 17.8555 99.6162 17.5753C99.0604 17.2951 98.4408 17.1666 97.8198 17.2026C97.3621 17.2148 96.9064 17.2677 96.4581 17.3609C95.6271 17.531 94.827 17.8275 94.0856 18.2403L93.954 18.3173C92.9391 18.9309 92.0673 19.7556 91.3973 20.7357C90.584 21.9191 90.0159 23.254 89.7267 24.6615C89.4374 26.0691 89.4329 27.5205 89.7133 28.9298C89.8441 29.5713 90.0578 30.1929 90.3492 30.7788L90.5246 31.1218L87.9635 31.7088C87.7057 31.7737 87.442 31.812 87.1764 31.8231C86.4857 31.8231 86.1436 31.4427 86.126 30.5677L86.126 25.3791C86.1183 24.6623 86.0449 23.9477 85.9068 23.2443C85.5954 21.7756 84.7381 20.8522 83.4575 20.5752L83.3391 20.5532C83.0924 20.509 82.8421 20.4876 82.5914 20.4895C82.1999 20.492 81.8096 20.5355 81.4271 20.6192C81.2275 20.6632 81.0258 20.7159 80.8263 20.7775C80.0786 20.9622 78.0964 21.6811 76.2216 24.337C75.8225 23.341 75.1647 22.743 74.2175 22.5386C74.18 22.528 74.1419 22.5199 74.1034 22.5144C73.8675 22.4725 73.6282 22.4526 73.3886 22.455C72.946 22.4607 72.5051 22.5123 72.073 22.6089C71.2947 22.7667 70.5444 23.0409 69.8474 23.4224C69.8013 23.4466 69.7575 23.4729 69.7158 23.4993C68.7388 24.0432 67.9779 24.9071 67.5604 25.9463L67.3696 25.9881L67.3696 24.0094L63.7078 24.7899L63.7078 36.882L55.0115 38.7442L55.0115 32.6476C55.4501 30.7172 56.5464 29.596 58.3247 29.2134C58.6548 29.1415 58.9912 29.1032 59.329 29.0991C59.6609 29.097 59.9916 29.1414 60.3113 29.231L60.2872 25.467L60.2872 25.4143C60.0965 25.3576 59.8983 25.3309 59.6995 25.3351C59.4184 25.3387 59.1384 25.3719 58.8641 25.4341C58.2182 25.5667 57.6007 25.8122 57.0398 26.1596L56.9301 26.2299C56.0771 26.7869 55.4336 27.6132 55.1014 28.578L54.8558 28.6308L54.8558 26.6741L51.251 27.4436L51.194 27.4546L49.0474 27.914L49.0978 31.0536L51.194 30.6139L51.194 39.5577L47.53 40.3426C47.2721 40.4074 47.0084 40.4464 46.7428 40.4591C46.0521 40.4591 45.6947 40.0194 45.6794 39.1399C45.6794 39.0256 45.6794 38.9355 45.6794 38.8497L45.6794 28.6374L44.4646 28.8924L42.0789 29.4025L41.9934 29.4201L41.9934 31.3988L41.829 31.4318L41.5856 31.1372C40.9278 30.2577 39.9542 29.8312 38.6868 29.8334C38.2286 29.8376 37.7722 29.8907 37.3251 29.9917C35.2613 30.4042 33.4428 31.616 32.2644 33.3643C32.0391 33.693 31.8326 34.0343 31.646 34.3866C31.6066 34.4592 31.5671 34.5361 31.5276 34.6065L31.4947 34.679C31.2932 35.0877 31.1188 35.5093 30.9729 35.941L30.7953 36.3983C29.3634 40.8988 28.0193 42.196 26.7629 43.3766C20.9456 48.807 14.9508 46.05 14.0759 41.798C13.4027 38.5134 14.3083 36.1477 15.7094 34.136C17.0251 32.2518 18.8012 31.0822 21.1737 30.5765C21.8124 30.4412 22.4636 30.3734 23.1164 30.3742C23.3927 30.3742 23.6799 30.3742 23.9738 30.405L24.2391 30.4248L24.3334 33.782L27.2825 33.1532L27.2825 27.4919C26.6796 27.1797 25.7608 26.9973 24.546 26.9489C24.2084 26.9247 23.8663 26.9137 23.5308 26.9137C22.5426 26.9161 21.5572 27.0207 20.5904 27.2259C17.2158 27.947 14.5013 29.6048 12.519 32.1529C10.2649 35.099 9.42075 39.1729 10.4075 43.1018C11.8525 48.8532 16.8409 49.8755 18.6564 49.9811C23.5111 50.2647 27.3045 47.2659 27.3045 47.2659C28.517 46.3095 29.5367 45.463 31.111 43.2337L31.3522 43.647C32.2293 45.1552 33.6524 45.9511 35.503 45.9489C35.8598 45.9474 36.216 45.9195 36.5687 45.8654L36.6323 45.8544C37.8185 45.7093 40.6317 45.3905 42.6841 42.4136C43.2871 43.381 44.1949 43.8581 45.4623 43.8581C45.7182 43.8552 45.9738 43.8369 46.2275 43.8031L67.5143 39.2587L67.5143 29.785C68.0143 27.9866 69.1567 26.7356 70.6017 26.4278C70.8127 26.3808 71.028 26.3558 71.2441 26.3531C72.1519 26.3531 72.7154 26.8411 72.9216 27.8041C72.989 28.1444 73.033 28.4889 73.0531 28.8352L73.0531 38.0692L76.8684 37.2558L76.8684 27.7514C77.2916 26.109 78.5152 24.7349 79.8461 24.4535C80.0695 24.4048 80.2973 24.379 80.5259 24.3766C81.438 24.3766 82.0235 24.8514 82.2143 25.7572C82.282 26.2002 82.3135 26.648 82.3085 27.0962L82.3085 30.1742L82.3085 31.1196C82.2761 31.7675 82.321 32.417 82.4423 33.0543C82.7427 34.4768 83.8741 35.2859 85.4222 35.2859C85.8174 35.2801 86.2111 35.2352 86.5975 35.1517C86.8167 35.1232 95.8266 33.206 95.8266 33.206C97.515 32.8235 100.162 32.4365 101.826 29.7894C102.427 30.748 103.332 31.2207 104.595 31.2185C104.983 31.2134 105.37 31.1714 105.751 31.0932L112 29.7564L111.985 26.5575ZM41.8443 39.0476C41.2282 40.9735 39.9016 42.3213 38.2351 42.6752C37.9469 42.7384 37.653 42.7723 37.358 42.7764C35.8078 42.7764 34.7421 41.7804 34.354 39.9644C34.0229 38.4056 34.3168 36.8139 35.2311 35.2375C35.6449 34.5489 36.2263 33.977 36.9209 33.5755C37.6155 33.1741 38.4005 32.9561 39.2021 32.9422C40.3884 32.9422 41.2742 33.4874 41.8334 34.5713L41.8443 39.0476ZM100.993 26.3421C100.385 28.3054 99.0477 29.6795 97.3615 30.0379C97.0733 30.1011 96.7794 30.135 96.4844 30.139C94.932 30.139 93.8663 29.143 93.4804 27.327C93.1493 25.7682 93.4409 24.1765 94.3575 22.6001C94.6847 22.0409 95.1248 21.5565 95.6497 21.1779C96.1746 20.7993 96.7726 20.5348 97.4053 20.4015C97.7129 20.3337 98.0267 20.2984 98.3416 20.296C99.541 20.296 100.433 20.8522 101.004 21.9581L100.993 26.3421Z" fill="#F9F8F5"/>
</svg>

