<svg width="48" height="24" viewBox="0 0 48 24" fill="none" xmlns="http://www.w3.org/2000/svg">
<path d="M22.6655 14.8H25.1655V13.2H22.6655V14.8Z" fill="#332E69"/>
<path d="M18.1655 14.8H15.6655V13.2H18.1655V14.8Z" fill="#332E69"/>
<path fill-rule="evenodd" clip-rule="evenodd" d="M32.4434 10.7046C32.3138 10.6057 32.1293 10.466 31.9018 10.2963C31.4359 9.94879 30.7879 9.47462 30.0601 8.9683C28.6274 7.97159 26.8085 6.79541 25.4628 6.25721C24.8197 6.00001 23.9676 5.87028 23.039 5.80898C22.0946 5.74663 21.0036 5.75155 19.846 5.79783C17.531 5.89039 14.8895 6.15119 12.5165 6.399C10.4177 6.61817 8.5995 7.95695 7.76812 9.89685L7.5707 10.3575C7.45229 10.6338 7.36746 10.9233 7.31804 11.2198L6.79573 14.3537C6.50643 16.0895 7.57492 17.7459 9.23955 18.2194C9.57129 19.8073 10.9791 21 12.6655 21C14.3233 21 15.7119 19.8475 16.0737 18.3H30.2574C30.6192 19.8475 32.0078 21 33.6655 21C35.3233 21 36.7119 19.8475 37.0737 18.3L39.6653 18.3001C40.6459 18.3001 41.5057 17.4889 41.4097 16.4296C41.3637 15.9229 41.2779 15.2788 41.1137 14.6659C40.9564 14.079 40.6971 13.4004 40.231 12.9343C39.1747 11.8781 37.4226 11.3539 35.9522 11.0736C34.4387 10.7851 33.017 10.7197 32.4434 10.7046ZM24.8686 7.7428C24.4643 7.5811 23.8156 7.46373 22.9336 7.4055C22.346 7.3667 21.6832 7.35566 20.9653 7.36667V10.4615L29.6652 10.6466C29.4981 10.5279 29.3247 10.4058 29.1464 10.2817C27.7041 9.27835 26.023 8.20447 24.8686 7.7428ZM19.3653 10.4275V7.42113C17.6511 7.50689 15.7752 7.67626 13.9653 7.8585V10.3126L19.3653 10.4275ZM12.3653 10.2786L9.38781 10.2152C9.99276 9.07211 11.0918 8.26726 12.3653 8.03569V10.2786ZM9.30261 16.5269C8.63551 16.1624 8.2426 15.4049 8.37396 14.6167L8.84275 11.804L31.8932 12.2944C31.9727 12.2961 32.0448 12.2973 32.1146 12.2984C32.2089 12.2999 32.2995 12.3014 32.3983 12.304C32.93 12.3179 34.2574 12.3794 35.6526 12.6453C37.0937 12.92 38.4132 13.3793 39.0997 14.0657C39.2593 14.2254 39.43 14.5642 39.5682 15.08C39.6994 15.5698 39.7745 16.1138 39.8162 16.574C39.8191 16.606 39.8103 16.6299 39.7886 16.6523C39.7644 16.6775 39.7227 16.7001 39.6653 16.7001L37.0737 16.7C36.7119 15.1525 35.3233 14 33.6655 14C32.0078 14 30.6192 15.1525 30.2574 16.7H16.0737C15.7119 15.1525 14.3233 14 12.6655 14C11.0702 14 9.7242 15.0673 9.30261 16.5269ZM33.6655 19.4C32.6162 19.4 31.7655 18.5493 31.7655 17.5C31.7655 16.4507 32.6162 15.6 33.6655 15.6C34.7149 15.6 35.5655 16.4507 35.5655 17.5C35.5655 18.5493 34.7149 19.4 33.6655 19.4ZM10.7655 17.5C10.7655 18.5493 11.6162 19.4 12.6655 19.4C13.7149 19.4 14.5655 18.5493 14.5655 17.5C14.5655 16.4507 13.7149 15.6 12.6655 15.6C11.6162 15.6 10.7655 16.4507 10.7655 17.5Z" fill="#332E69"/>
</svg>
