<svg width="48" height="24" viewBox="0 0 48 24" fill="none" xmlns="http://www.w3.org/2000/svg">
<path d="M24.526 13.8H27.026V12.2H24.526V13.8Z" fill="#332E69"/>
<path d="M18.026 13.8H15.526V12.2H18.026V13.8Z" fill="#332E69"/>
<path fill-rule="evenodd" clip-rule="evenodd" d="M34.4311 9.28833L34.384 9.24662C34.2686 9.14463 34.102 8.99954 33.8942 8.82456C33.4794 8.47512 32.8974 8.00375 32.2296 7.51715C31.5634 7.03175 30.8013 6.52346 30.0271 6.10527C29.2621 5.69205 28.4385 5.34098 27.6576 5.21083C25.2034 4.80182 20.5906 4.72265 16.3086 4.95101C13.9398 5.07734 11.7535 6.14114 10.1022 7.79252L9.54428 8.35043C9.0003 8.89442 8.26249 9.20004 7.49317 9.20005C5.6888 9.20007 4.22607 10.6628 4.22607 12.4672V14.5C4.22607 16.5987 5.92739 18.3 8.02607 18.3H9.11782C9.47964 19.8475 10.8682 21 12.526 21C14.1837 21 15.5723 19.8475 15.9341 18.3H32.1178C32.4797 19.8475 33.8682 21 35.526 21C37.1837 21 38.5723 19.8475 38.9341 18.3H42.0258C43.0128 18.3 43.8447 17.4941 43.798 16.4656C43.7659 15.7594 43.6958 14.7712 43.5398 13.859C43.462 13.4035 43.3593 12.9464 43.2209 12.5439C43.0889 12.1598 42.8961 11.739 42.5915 11.4343C41.9352 10.7781 40.885 10.3597 39.8303 10.0721C38.7429 9.77547 37.5099 9.58226 36.3648 9.45499C35.6817 9.37908 35.0216 9.32577 34.4311 9.28833ZM27.3946 6.78906C26.4967 6.63943 25.2578 6.53519 23.8258 6.47769V9.20001H31.8085C31.6424 9.07271 31.4681 8.94199 31.2873 8.81028C30.656 8.35023 29.9568 7.88578 29.2667 7.51303C28.5674 7.1353 27.9235 6.87721 27.3946 6.78906ZM22.2258 9.20001V6.43407C20.3961 6.40581 18.3712 6.44329 16.3938 6.54874C16.2033 6.5589 16.0138 6.5765 15.8258 6.60131V9.20001H22.2258ZM14.2258 9.20001H10.9574L11.2336 8.92388C12.0943 8.06315 13.1157 7.40149 14.2258 6.99574V9.20001ZM9.11783 16.7H8.02607C6.81104 16.7 5.82607 15.715 5.82607 14.5V12.4672C5.82607 11.5465 6.57246 10.8001 7.49319 10.8001L7.52581 10.7999L32.0257 10.8C32.0358 10.8 33.9929 10.8013 36.188 11.0452C37.2927 11.168 38.4344 11.3498 39.4093 11.6157C40.4169 11.8905 41.1164 12.222 41.4601 12.5657C41.5056 12.6111 41.6016 12.7549 41.7078 13.0639C41.8077 13.3546 41.8927 13.7194 41.9627 14.1287C42.1025 14.9459 42.1688 15.8586 42.1997 16.5382C42.2031 16.6133 42.1434 16.7 42.0258 16.7H38.9341C38.5723 15.1525 37.1837 14 35.526 14C33.8682 14 32.4796 15.1525 32.1178 16.7H15.9341C15.5723 15.1525 14.1837 14 12.526 14C10.8682 14 9.47967 15.1525 9.11783 16.7ZM35.526 19.4C34.4766 19.4 33.626 18.5493 33.626 17.5C33.626 16.4507 34.4766 15.6 35.526 15.6C36.5753 15.6 37.426 16.4507 37.426 17.5C37.426 18.5493 36.5753 19.4 35.526 19.4ZM10.626 17.5C10.626 18.5493 11.4766 19.4 12.526 19.4C13.5753 19.4 14.426 18.5493 14.426 17.5C14.426 16.4507 13.5753 15.6 12.526 15.6C11.4766 15.6 10.626 16.4507 10.626 17.5Z" fill="#332E69"/>
</svg>
