<svg width="48" height="24" viewBox="0 0 48 24" fill="none" xmlns="http://www.w3.org/2000/svg">
<path d="M23.7169 13.8H26.2169V12.2H23.7169V13.8Z" fill="#150D2C" fill-opacity="0.878431"/>
<path d="M17.2169 13.8H14.7169V12.2H17.2169V13.8Z" fill="#150D2C" fill-opacity="0.878431"/>
<path fill-rule="evenodd" clip-rule="evenodd" d="M32.5965 9.23456C32.4834 9.11549 32.3284 8.95492 32.139 8.76533C31.7254 8.35144 31.1441 7.7953 30.4752 7.22948C29.8087 6.66564 29.041 6.08005 28.255 5.61582C27.4823 5.15941 26.6242 4.77927 25.7891 4.70335C20.9166 4.2603 15.6798 4.59088 11.1085 5.0135C9.63736 5.14951 8.2825 5.85277 7.31425 6.95937L5.993 8.46941C5.32541 9.2324 4.86947 10.1571 4.67064 11.1512L4.31478 12.9305C3.78651 15.5718 5.68153 18.0448 8.30446 18.2815C8.65953 19.8383 10.0525 20.9999 11.7169 20.9999C13.3746 20.9999 14.7632 19.8474 15.125 18.3H31.3087C31.6706 19.8474 33.0591 20.9999 34.7169 20.9999C36.3746 20.9999 37.7632 19.8474 38.125 18.3H41.2167C42.2037 18.3 43.0356 17.494 42.9889 16.4656C42.9568 15.7593 42.8867 14.7712 42.7307 13.8589C42.6528 13.4035 42.5502 12.9464 42.4118 12.5438C42.2798 12.1597 42.087 11.7389 41.7824 11.4343C41.1261 10.7781 40.0759 10.3596 39.0212 10.072C37.9338 9.77541 36.7008 9.5822 35.5557 9.45493C34.4404 9.33099 33.3864 9.26729 32.5965 9.23456ZM25.6443 6.29677C24.4551 6.18865 23.2408 6.12796 22.0167 6.10441V9.19995H30.2852C30.0281 8.96104 29.7441 8.70666 29.4419 8.45104C28.814 7.91993 28.1221 7.39554 27.4413 6.99347C26.7473 6.58358 26.1317 6.34109 25.6443 6.29677ZM20.4167 9.19995V6.09389C18.2655 6.10573 16.1048 6.21747 14.0167 6.37394V9.19995H20.4167ZM12.4167 9.19995H7.4798L8.51839 8.01296C9.22118 7.20974 10.2 6.70431 11.2558 6.6067C11.639 6.57128 12.0261 6.53658 12.4167 6.503V9.19995ZM8.31525 16.6726C6.69839 16.4494 5.55293 14.8981 5.8837 13.2443L6.23957 11.465C6.28505 11.2376 6.34911 11.0152 6.4307 10.8H31.2166C31.2267 10.8 33.1838 10.8012 35.3789 11.0451C36.4836 11.1679 37.6253 11.3497 38.6002 11.6156C39.6078 11.8904 40.3073 12.222 40.651 12.5657C40.6964 12.6111 40.7925 12.7548 40.8987 13.0639C40.9986 13.3545 41.0836 13.7193 41.1536 14.1286C41.2934 14.9458 41.3597 15.8586 41.3906 16.5382C41.394 16.6132 41.3343 16.7 41.2167 16.7H38.125C37.7632 15.1525 36.3746 13.9999 34.7169 13.9999C33.0591 13.9999 31.6705 15.1525 31.3087 16.7H15.125C14.7632 15.1525 13.3746 13.9999 11.7169 13.9999C10.0689 13.9999 8.68697 15.1389 8.31525 16.6726ZM34.7169 19.3999C33.6675 19.3999 32.8169 18.5493 32.8169 17.4999C32.8169 16.4506 33.6675 15.5999 34.7169 15.5999C35.7662 15.5999 36.6169 16.4506 36.6169 17.4999C36.6169 18.5493 35.7662 19.3999 34.7169 19.3999ZM9.81687 17.4999C9.81687 18.5493 10.6675 19.3999 11.7169 19.3999C12.7662 19.3999 13.6169 18.5493 13.6169 17.4999C13.6169 16.4506 12.7662 15.5999 11.7169 15.5999C10.6675 15.5999 9.81687 16.4506 9.81687 17.4999Z" fill="#150D2C" fill-opacity="0.878431"/>
</svg>
