<svg width="48" height="24" viewBox="0 0 48 24" fill="none" xmlns="http://www.w3.org/2000/svg">
<path d="M26.0262 13.8H23.5262V12.2H26.0262V13.8Z" fill="#332E69"/>
<path fill-rule="evenodd" clip-rule="evenodd" d="M35.381 9.20782C35.2633 9.08364 35.1051 8.91867 34.9142 8.72447C34.4817 8.28459 33.8786 7.69153 33.1979 7.08168C32.5194 6.47375 31.7518 5.83826 30.9912 5.3199C30.2491 4.81411 29.4379 4.36646 28.6833 4.21554C26.4146 3.76181 23.4136 3.70802 20.3471 4.03036C19.1384 4.15742 18.196 5.07313 17.9645 6.23066L17.3706 9.20001H6.02607C5.58424 9.20001 5.22607 9.55818 5.22607 10V15.1736C5.22607 16.6218 6.33031 17.831 7.77251 17.9621L11.1102 18.2656C11.4594 19.8304 12.8562 21 14.5262 21C16.184 21 17.5726 19.8475 17.9344 18.3H33.1181C33.4799 19.8475 34.8685 21 36.5262 21C38.1839 21 39.5725 19.8476 39.9344 18.3001H42.0261C43.013 18.3001 43.845 17.4942 43.7983 16.4658C43.7662 15.7595 43.6961 14.7713 43.5401 13.859C43.4622 13.4036 43.3596 12.9465 43.2212 12.5439C43.0892 12.1598 42.8964 11.739 42.5917 11.4343C41.3988 10.2414 39.4211 9.71328 37.9087 9.4611C36.8287 9.28104 35.8742 9.22516 35.381 9.20782ZM28.3696 5.78447C27.0978 5.53012 25.5338 5.409 23.826 5.42671V9.20001H33.1228C32.8235 8.9097 32.4875 8.59347 32.1302 8.27335C31.4797 7.69047 30.7702 7.10556 30.0901 6.64203C29.3916 6.16595 28.7985 5.87026 28.3696 5.78447ZM22.226 9.20001V5.4819C21.6637 5.51441 21.0916 5.56091 20.5144 5.62159C20.0365 5.67182 19.6345 6.03899 19.5334 6.54445L19.0023 9.20001H22.226ZM37.6455 11.0393C39.1326 11.2873 40.6538 11.7591 41.4604 12.5657C41.5058 12.6111 41.6018 12.7549 41.7081 13.064C41.808 13.3546 41.893 13.7194 41.963 14.1287C42.1027 14.946 42.1691 15.8587 42.1999 16.5384C42.2034 16.6134 42.1437 16.7001 42.0261 16.7001H39.9344C39.5727 15.1526 38.1841 14 36.5262 14C34.8685 14 33.4799 15.1525 33.1181 16.7H17.9344C17.5726 15.1525 16.184 14 14.5262 14C12.8826 14 11.5036 15.133 11.1275 16.6606L7.9174 16.3687C7.29932 16.3125 6.82607 15.7943 6.82607 15.1736V10.8H35.0258C35.0388 10.8 36.2268 10.8028 37.6455 11.0393ZM36.5262 19.4C35.4769 19.4 34.6262 18.5493 34.6262 17.5C34.6262 16.4507 35.4769 15.6 36.5262 15.6C37.5756 15.6 38.4262 16.4507 38.4262 17.5C38.4262 18.5493 37.5756 19.4 36.5262 19.4ZM12.6262 17.5C12.6262 18.5493 13.4769 19.4 14.5262 19.4C15.5756 19.4 16.4262 18.5493 16.4262 17.5C16.4262 16.4507 15.5756 15.6 14.5262 15.6C13.4769 15.6 12.6262 16.4507 12.6262 17.5Z" fill="#332E69"/>
</svg>
