<svg width="48" height="24" viewBox="0 0 48 24" fill="none" xmlns="http://www.w3.org/2000/svg">
<path d="M19.7165 15.3H17.2165V13.7H19.7165V15.3Z" fill="#332E69"/>
<path fill-rule="evenodd" clip-rule="evenodd" d="M31.1713 11.342L31.1762 11.3454C31.2367 11.3879 31.2895 11.4372 31.3343 11.4916C32.3199 11.5988 33.4186 11.7415 34.5067 11.929C35.7676 12.1463 37.0386 12.4279 38.1122 12.7931C39.1459 13.1449 40.149 13.6225 40.7128 14.3184C40.8949 14.5432 40.9913 14.7861 41.0493 14.9826C41.3005 15.8328 41.4144 16.7655 41.4675 17.4389C41.5505 18.49 40.6992 19.3 39.7164 19.3H36.2188C35.6069 20.3185 34.4913 21 33.2165 21C31.9418 21 30.8262 20.3185 30.2142 19.3H14.2188C13.6069 20.3185 12.4913 21 11.2165 21C9.87867 21 8.71614 20.2494 8.12711 19.1463C5.99422 18.3335 4.7909 16.0202 5.4025 13.7777L5.52666 13.3225C5.81853 12.2523 6.30615 11.0742 7.28917 10.2397C9.18726 8.62837 11.8557 7.77182 14.5986 7.36192C17.3573 6.94966 20.2845 6.97564 22.789 7.20336C23.5837 7.27562 24.5113 7.59949 25.4058 7.99483C26.3165 8.39737 27.2617 8.90553 28.1103 9.39859C28.9608 9.89277 29.7255 10.3783 30.2771 10.7399C30.5532 10.9209 30.7766 11.0714 30.9317 11.177C31.0092 11.2298 31.0696 11.2714 31.111 11.3001L31.1586 11.3331L31.1713 11.342ZM22.6441 8.79679C20.7425 8.62388 18.607 8.57396 16.5166 8.74989V11.2H27.1713C27.4585 11.2 27.7466 11.2046 28.0385 11.2176C27.8045 11.0752 27.5593 10.9289 27.3065 10.782C26.4857 10.3051 25.5961 9.82828 24.7589 9.45826C23.9055 9.08104 23.1719 8.84477 22.6441 8.79679ZM14.9166 11.2V8.93232L14.8351 8.94435C12.3947 9.30904 10.2059 10.0231 8.64873 11.2H14.9166ZM7.74494 17.052C6.99862 16.344 6.65693 15.259 6.94612 14.1987L7.07027 13.7435C7.16161 13.4086 7.26719 13.0922 7.39239 12.8H27.1713C27.5235 12.8 27.8648 12.8074 28.2062 12.8287C29.2792 12.8956 31.7944 13.0851 34.2349 13.5058C35.4569 13.7164 36.6359 13.9809 37.5968 14.3079C38.5974 14.6483 39.2131 15.009 39.4696 15.3256C39.4711 15.3275 39.4902 15.3525 39.5149 15.4359C39.7201 16.1305 39.8229 16.9362 39.8725 17.5648C39.8753 17.6002 39.8649 17.6271 39.8416 17.6512C39.8162 17.6775 39.7738 17.7 39.7164 17.7H36.7109C36.7146 17.6338 36.7165 17.5671 36.7165 17.5C36.7165 15.567 35.1495 14 33.2165 14C31.2835 14 29.7165 15.567 29.7165 17.5C29.7165 17.5671 29.7184 17.6338 29.7222 17.7H14.7109C14.7146 17.6338 14.7165 17.5671 14.7165 17.5C14.7165 15.567 13.1495 14 11.2165 14C9.43532 14 7.96489 15.3306 7.74494 17.052ZM33.2165 19.4C32.1672 19.4 31.3165 18.5493 31.3165 17.5C31.3165 16.4507 32.1672 15.6 33.2165 15.6C34.2659 15.6 35.1165 16.4507 35.1165 17.5C35.1165 18.5493 34.2659 19.4 33.2165 19.4ZM9.31653 17.5C9.31653 18.5493 10.1672 19.4 11.2165 19.4C12.2659 19.4 13.1165 18.5493 13.1165 17.5C13.1165 16.4507 12.2659 15.6 11.2165 15.6C10.1672 15.6 9.31653 16.4507 9.31653 17.5Z" fill="#332E69"/>
</svg>
