<svg width="48" height="24" viewBox="0 0 48 24" fill="none" xmlns="http://www.w3.org/2000/svg">
<path d="M29.5308 13.8H27.0308V12.2H29.5308V13.8Z" fill="#332E69"/>
<path fill-rule="evenodd" clip-rule="evenodd" d="M35.0308 21C33.373 21 31.9844 19.8475 31.6226 18.3H16.4389C16.0771 19.8475 14.6885 21 13.0308 21C11.373 21 9.9845 19.8475 9.62263 18.3001H7.53096C5.98456 18.3001 4.73096 17.0465 4.73096 15.5001V7.00001C4.73096 4.90133 6.43227 3.20001 8.53096 3.20001H29.2172C31.5512 3.20001 33.7895 4.12715 35.4398 5.77747L38.9781 9.31576C39.0214 9.33386 39.0713 9.35552 39.1276 9.38111C39.3261 9.47135 39.6031 9.61037 39.9425 9.81404C40.6219 10.2217 41.5489 10.8867 42.5966 11.9343C42.8826 12.2203 43.0731 12.5982 43.2074 12.9525C43.3461 13.3185 43.4497 13.7275 43.5288 14.1326C43.687 14.9432 43.7614 15.8149 43.797 16.4573C43.8545 17.4924 43.0169 18.3001 42.0309 18.3001L38.4389 18.3C38.0771 19.8475 36.6885 21 35.0308 21ZM29.2172 4.80001C31.1268 4.80001 32.9582 5.55858 34.3084 6.90884L36.5996 9.2H27.5306C26.8678 9.2 26.3306 8.66274 26.3306 8V4.80001H29.2172ZM24.7306 4.80001V8C24.7306 9.5464 25.9842 10.8 27.5306 10.8H38.38C38.4045 10.8104 38.4331 10.8229 38.4655 10.8377C38.6107 10.9037 38.8338 11.0147 39.1193 11.186C39.69 11.5284 40.5129 12.1134 41.4653 13.0657C41.5194 13.1198 41.6112 13.2555 41.7112 13.5194C41.8067 13.7716 41.8894 14.0856 41.9584 14.4392C42.0964 15.146 42.1656 15.935 42.1995 16.546C42.2018 16.5872 42.1883 16.6206 42.1611 16.6484C42.1324 16.6778 42.088 16.7001 42.031 16.7001L38.4389 16.7C38.0771 15.1525 36.6885 14 35.0308 14C33.373 14 31.9844 15.1525 31.6226 16.7H16.4389C16.0771 15.1525 14.6885 14 13.0308 14C11.373 14 9.98438 15.1526 9.62259 16.7001H7.53096C6.86821 16.7001 6.33096 16.1628 6.33096 15.5001V10.8H17.5308V9.20001H6.33096V7.00001C6.33096 5.78499 7.31593 4.80001 8.53096 4.80001H24.7306ZM35.0308 19.4C33.9814 19.4 33.1308 18.5493 33.1308 17.5C33.1308 16.4507 33.9814 15.6 35.0308 15.6C36.0801 15.6 36.9308 16.4507 36.9308 17.5C36.9308 18.5493 36.0801 19.4 35.0308 19.4ZM11.1308 17.5C11.1308 18.5493 11.9814 19.4 13.0308 19.4C14.0801 19.4 14.9308 18.5493 14.9308 17.5C14.9308 16.4507 14.0801 15.6 13.0308 15.6C11.9814 15.6 11.1308 16.4507 11.1308 17.5Z" fill="#332E69"/>
</svg>
